<?xml version="1.0" encoding="UTF-8"?>
<svg id="_レイヤー_2" data-name="レイヤー 2" xmlns="http://www.w3.org/2000/svg" viewBox="0 0 452.4 189.79">
  <defs>
    <style>
      .cls-1 {
        fill: #fff;
      }

      .cls-1, .cls-2 {
        stroke: #24247f;
        stroke-miterlimit: 10;
        stroke-width: 3px;
      }

      .cls-2 {
        fill: none;
      }
    </style>
  </defs>
  <g id="_レイヤー_1のコピー" data-name="レイヤー 1のコピー">
    <polyline class="cls-2" points="230.59 19.67 230.59 1.5 1.5 1.5 1.5 72.37 131.43 72.37"/>
    <polyline class="cls-2" points="12.95 157.32 271.17 157.32 271.17 188.29 12.95 188.29 12.95 147.01 131.43 147.01 142.12 147.01 271.17 147.01 271.17 157.32"/>
    <polyline class="cls-2" points="13.28 1.5 13.28 32.13 131.43 32.13 131.43 1.5"/>
    <polyline class="cls-2" points="230.81 61.21 220.55 61.21 220.55 40.7 142.12 40.7 142.12 72.37 131.43 72.37 131.43 40.7 1.5 40.7"/>
    <polyline class="cls-2" points="230.81 72.37 230.81 40.7 270.2 40.7"/>
    <polyline class="cls-2" points="142.12 1.5 142.12 32.13 247.83 32.13 247.83 19.67 230.59 19.67 230.81 32.13"/>
    <polyline class="cls-2" points="450.9 157.32 292.06 157.32 292.06 188.29 450.9 188.29 450.9 147.01 292.06 147.01 292.06 157.32"/>
    <polyline class="cls-2" points="311.83 40.57 311.83 55.71 302.37 55.71"/>
    <polyline class="cls-2" points="302.37 19.67 302.37 27.91 292.06 27.91"/>
    <polyline class="cls-2" points="390.93 59.65 313.94 59.65 302.37 59.65 302.37 40.7 292.06 40.7 292.06 72.37 398.81 72.37 368.05 19.67 292.06 19.67 292.06 40.7"/>
    <polyline class="cls-2" points="325.72 19.67 325.72 53.52 387.8 53.52"/>
    <line class="cls-2" x1="325.72" y1="59.65" x2="325.72" y2="72.37"/>
    <line class="cls-2" x1="222.05" y1="32.13" x2="222.05" y2="1.5"/>
    <line class="cls-2" x1="195.3" y1="1.5" x2="195.3" y2="32.13"/>
    <line class="cls-2" x1="177.22" y1="32.13" x2="177.22" y2="1.5"/>
    <line class="cls-2" x1="110.48" y1="32.13" x2="110.48" y2="1.5"/>
    <line class="cls-2" x1="69.14" y1="1.5" x2="69.14" y2="32.13"/>
    <line class="cls-2" x1="42.3" y1="32.13" x2="42.3" y2="1.5"/>
    <line class="cls-2" x1="13.28" y1="40.7" x2="13.28" y2="72.37"/>
    <line class="cls-2" x1="59.97" y1="72.37" x2="59.97" y2="40.7"/>
    <line class="cls-2" x1="77.88" y1="40.7" x2="77.88" y2="72.37"/>
    <line class="cls-2" x1="116.61" y1="40.7" x2="116.61" y2="72.37"/>
    <line class="cls-2" x1="186.43" y1="40.7" x2="186.43" y2="72.37"/>
    <line class="cls-2" x1="247.83" y1="40.7" x2="247.83" y2="72.37"/>
    <line class="cls-2" x1="420.65" y1="157.32" x2="420.65" y2="188.29"/>
    <line class="cls-2" x1="390.97" y1="157.32" x2="390.97" y2="188.29"/>
    <line class="cls-2" x1="361.3" y1="188.29" x2="361.3" y2="157.32"/>
    <line class="cls-2" x1="331.74" y1="188.29" x2="331.74" y2="157.32"/>
    <line class="cls-2" x1="302.39" y1="157.32" x2="302.39" y2="188.29"/>
    <line class="cls-2" x1="260.61" y1="188.29" x2="260.61" y2="157.32"/>
    <line class="cls-2" x1="230.83" y1="157.32" x2="230.83" y2="188.29"/>
    <line class="cls-2" x1="201.05" y1="188.29" x2="201.05" y2="157.32"/>
    <line class="cls-2" x1="171.59" y1="157.32" x2="171.59" y2="188.29"/>
    <line class="cls-2" x1="142.06" y1="157.32" x2="142.06" y2="188.29"/>
    <line class="cls-2" x1="131.43" y1="157.32" x2="131.43" y2="188.29"/>
    <line class="cls-2" x1="101.66" y1="157.32" x2="101.66" y2="188.29"/>
    <line class="cls-2" x1="71.99" y1="188.29" x2="71.99" y2="157.32"/>
    <line class="cls-2" x1="42.21" y1="157.32" x2="42.21" y2="188.29"/>
    <polyline class="cls-2" points="13.28 29.36 7.63 29.36 7.63 16.82 1.5 16.82"/>
    <polyline class="cls-2" points="131.43 16.82 136.57 16.82 136.57 29.36 142.06 29.36"/>
    <polyline class="cls-2" points="220.55 42.29 225.26 42.29 225.26 61.21"/>
    <polyline class="cls-2" points="302.37 40.7 307.1 40.7 307.1 55.71"/>
    <line class="cls-2" x1="334.9" y1="59.65" x2="334.9" y2="72.37"/>
    <line class="cls-2" x1="343.41" y1="59.65" x2="343.41" y2="72.37"/>
    <line class="cls-2" x1="352.57" y1="59.65" x2="352.57" y2="72.37"/>
    <line class="cls-2" x1="361.3" y1="59.65" x2="361.3" y2="72.37"/>
    <line class="cls-2" x1="382.19" y1="59.65" x2="382.19" y2="72.37"/>
    <polyline class="cls-2" points="325.72 44.25 348.15 44.25 348.15 53.52"/>
    <polyline class="cls-2" points="361.3 53.52 361.3 38.53 378.72 38.53"/>
    <polyline class="cls-2" points="325.72 26.09 361.3 26.09 371.79 26.09"/>
    <polyline class="cls-2" points="375 32.13 365.17 32.13 361.3 32.13 361.3 26.09"/>
    <line class="cls-2" x1="365.01" y1="38.53" x2="365.01" y2="32.13"/>
    <line class="cls-1" x1="215.85" y1="72.37" x2="215.85" y2="40.57"/>
    <polyline class="cls-2" points="142.12 72.37 270.2 72.37 270.2 32.13 247.83 32.13"/>
  </g>
</svg>