<?xml version="1.0" encoding="UTF-8"?>
<svg id="_レイヤー_2" data-name="レイヤー 2" xmlns="http://www.w3.org/2000/svg" viewBox="0 0 452.4 196.8">
  <defs>
    <style>
      .cls-1 {
        fill: none;
        stroke: #24247f;
        stroke-miterlimit: 10;
        stroke-width: 3px;
      }
    </style>
  </defs>
  <g id="_レイヤー_1-2" data-name="レイヤー 1">
    <polyline class="cls-1" points="142.12 72.37 142.12 147.01 271.17 147.01 271.17 72.37 142.12 72.37 142.12 40.7 220.55 40.7 220.55 61.21 230.81 61.21"/>
    <polyline class="cls-1" points="341.1 123.91 292.06 123.91 292.06 147.01 450.9 147.01 450.9 188.29 292.05 188.29 292.05 195.3 271.17 195.3 271.17 188.29 12.95 188.29 12.95 147.01 131.43 147.01 131.43 72.37 1.5 72.37 1.5 1.5 230.59 1.5 230.59 19.67 368.05 19.67 398.81 72.37 292.06 72.37 292.06 93.94 341.1 93.94"/>
    <polyline class="cls-1" points="13.28 1.5 13.28 32.13 131.43 32.13 131.43 1.5"/>
    <polyline class="cls-1" points="1.5 40.7 101.65 40.7 101.65 58.51 107.43 58.51 107.43 40.7 131.43 40.7 131.43 72.37"/>
    <polyline class="cls-1" points="230.81 72.37 230.81 40.7 247.83 40.7 247.83 72.37"/>
    <polyline class="cls-1" points="142.12 1.5 142.12 32.13 247.83 32.13 247.83 19.67 230.59 19.67 230.59 32.13"/>
    <polyline class="cls-1" points="368.05 19.67 368.05 32.13 302.37 32.13 302.37 26.87 292.06 26.87"/>
    <line class="cls-1" x1="292.06" y1="19.67" x2="292.06" y2="32.13"/>
    <polyline class="cls-1" points="292.06 72.37 292.06 40.7 302.37 40.7 302.37 59.65 313.94 59.65 313.72 40.7 380.32 40.7"/>
    <polyline class="cls-1" points="450.9 157.32 292.06 157.32 292.06 188.29"/>
    <polyline class="cls-1" points="12.95 157.32 271.17 157.32 271.17 188.29"/>
    <line class="cls-1" x1="260.48" y1="188.29" x2="260.48" y2="157.32"/>
    <line class="cls-1" x1="230.7" y1="157.32" x2="230.7" y2="188.29"/>
    <line class="cls-1" x1="200.92" y1="188.29" x2="200.92" y2="157.32"/>
    <line class="cls-1" x1="171.46" y1="157.32" x2="171.46" y2="188.29"/>
    <line class="cls-1" x1="141.94" y1="157.32" x2="141.94" y2="188.29"/>
    <line class="cls-1" x1="131.3" y1="157.32" x2="131.3" y2="188.29"/>
    <line class="cls-1" x1="101.54" y1="157.32" x2="101.54" y2="188.29"/>
    <line class="cls-1" x1="71.86" y1="188.29" x2="71.86" y2="157.32"/>
    <line class="cls-1" x1="42.08" y1="157.32" x2="42.08" y2="188.29"/>
    <line class="cls-1" x1="421.17" y1="157.32" x2="421.17" y2="188.29"/>
    <line class="cls-1" x1="391.5" y1="157.32" x2="391.5" y2="188.29"/>
    <line class="cls-1" x1="361.83" y1="188.29" x2="361.83" y2="157.32"/>
    <line class="cls-1" x1="332.26" y1="188.29" x2="332.26" y2="157.32"/>
    <line class="cls-1" x1="302.92" y1="157.32" x2="302.92" y2="188.29"/>
    <line class="cls-1" x1="13.28" y1="40.7" x2="13.28" y2="72.37"/>
    <line class="cls-1" x1="33.35" y1="32.13" x2="33.35" y2="1.5"/>
    <line class="cls-1" x1="42.52" y1="72.37" x2="42.52" y2="40.7"/>
    <line class="cls-1" x1="54.41" y1="32.13" x2="54.41" y2="1.5"/>
    <line class="cls-1" x1="60.08" y1="40.7" x2="60.08" y2="72.37"/>
    <line class="cls-1" x1="78.08" y1="32.13" x2="78.08" y2="1.5"/>
    <line class="cls-1" x1="89.75" y1="40.7" x2="89.75" y2="72.37"/>
    <line class="cls-1" x1="95.97" y1="32.13" x2="95.97" y2="1.5"/>
    <line class="cls-1" x1="153.9" y1="32.13" x2="153.9" y2="1.5"/>
    <line class="cls-1" x1="165.79" y1="1.5" x2="165.79" y2="32.13"/>
    <line class="cls-1" x1="189.35" y1="32.13" x2="189.35" y2="1.5"/>
    <line class="cls-1" x1="210.19" y1="1.5" x2="210.19" y2="32.13"/>
    <line class="cls-1" x1="219.3" y1="32.13" x2="219.3" y2="1.5"/>
    <line class="cls-1" x1="302.37" y1="59.65" x2="302.37" y2="72.37"/>
    <line class="cls-1" x1="302.37" y1="19.67" x2="302.37" y2="26.87"/>
    <line class="cls-1" x1="314.05" y1="32.13" x2="314.05" y2="19.67"/>
    <line class="cls-1" x1="332.05" y1="19.67" x2="332.05" y2="32.13"/>
    <line class="cls-1" x1="349.72" y1="32.13" x2="349.72" y2="19.67"/>
    <line class="cls-1" x1="358.55" y1="32.13" x2="358.55" y2="19.67"/>
    <line class="cls-1" x1="341.1" y1="19.67" x2="341.1" y2="32.13"/>
    <line class="cls-1" x1="326.26" y1="40.7" x2="326.26" y2="72.37"/>
    <line class="cls-1" x1="346.66" y1="72.37" x2="346.66" y2="40.7"/>
    <line class="cls-1" x1="367.5" y1="40.7" x2="367.5" y2="72.37"/>
    <line class="cls-1" x1="89.75" y1="51.42" x2="101.65" y2="51.42"/>
    <line class="cls-1" x1="101.65" y1="58.51" x2="101.65" y2="72.37"/>
    <line class="cls-1" x1="119.37" y1="40.7" x2="119.37" y2="72.37"/>
    <polyline class="cls-1" points="107.43 58.51 107.43 61.07 119.37 61.07"/>
    <polyline class="cls-1" points="1.5 28.84 7.61 28.84 7.61 18.04"/>
    <line class="cls-1" x1="12.95" y1="13.13" x2="1.5" y2="13.13"/>
    <line class="cls-1" x1="131.3" y1="12.64" x2="141.94" y2="12.64"/>
    <polyline class="cls-1" points="131.43 29 136.62 29 136.62 17.55"/>
    <polyline class="cls-1" points="230.7 46.35 225.41 46.35 225.41 55.67"/>
    <line class="cls-1" x1="220.55" y1="40.7" x2="225.41" y2="40.7"/>
    <polyline class="cls-1" points="313.72 40.7 307.55 40.7 307.55 53.71"/>
    <line class="cls-1" x1="271.17" y1="175.62" x2="292.06" y2="175.62"/>
    <line class="cls-1" x1="276.95" y1="158.93" x2="276.95" y2="175.62"/>
    <line class="cls-1" x1="285.95" y1="158.93" x2="285.95" y2="175.62"/>
  </g>
</svg>