<?xml version="1.0" encoding="UTF-8"?>
<svg id="_レイヤー_2" data-name="レイヤー 2" xmlns="http://www.w3.org/2000/svg" viewBox="0 0 200.57 87.79">
  <defs>
    <style>
      .cls-1 {
        fill: none;
        stroke: #24247f;
        stroke-miterlimit: 10;
        stroke-width: 2px;
      }

      .cls-2 {
        fill: #24247f;
        stroke-width: 0px;
      }
    </style>
  </defs>
  <g id="_レイヤー_2-2" data-name="レイヤー 2">
    <line class="cls-1" x1="10.15" y1="10.1" x2="10.15" y2="35.85"/>
    <line class="cls-1" x1="19.18" y1="35.85" x2="19.18" y2="10.1"/>
    <line class="cls-1" x1="30.44" y1="25.38" x2="30.44" y2="35.85"/>
    <line class="cls-1" x1="30.44" y1="44.14" x2="30.44" y2="69.67"/>
    <polyline class="cls-1" points="20.07 44.14 20.07 59.96 30.44 59.96"/>
    <line class="cls-1" x1="102.16" y1="43.57" x2="102.16" y2="69.67"/>
    <line class="cls-1" x1="102.82" y1="35.85" x2="102.82" y2="25.38"/>
    <line class="cls-1" x1="113.95" y1="25.38" x2="113.95" y2="35.85"/>
    <line class="cls-1" x1="131.78" y1="35.85" x2="131.78" y2="25.38"/>
    <line class="cls-1" x1="140.78" y1="25.38" x2="140.78" y2="35.85"/>
    <line class="cls-1" x1="149.62" y1="35.85" x2="149.62" y2="25.38"/>
    <line class="cls-1" x1="158.78" y1="25.38" x2="158.78" y2="35.85"/>
    <line class="cls-1" x1="167.62" y1="69.67" x2="167.62" y2="43.57"/>
    <line class="cls-1" x1="147" y1="43.57" x2="147" y2="69.67"/>
    <line class="cls-1" x1="125.56" y1="69.67" x2="125.56" y2="43.57"/>
    <polyline class="cls-1" points="102.16 59.03 112.8 59.03 112.8 43.57"/>
    <line class="cls-1" x1="70.25" y1="69.67" x2="70.25" y2="87.79"/>
    <line class="cls-1" x1="91.45" y1="69.67" x2="91.45" y2="87.79"/>
    <line class="cls-1" x1="60.85" y1="25.38" x2="60.85" y2="10.1"/>
  </g>
  <g id="_レイヤー_1-2" data-name="レイヤー 1">
    <polyline class="cls-1" points="0 69.67 198.65 69.67 167.89 25.38 30.44 25.38 30.44 10.1 0 10.1"/>
    <polyline class="cls-1" points="0 35.85 47.24 35.85 47.24 25.38"/>
    <polyline class="cls-1" points="47.24 69.67 47.24 44.14 0 44.14"/>
    <polyline class="cls-1" points="91.45 25.38 91.45 35.85 167.62 35.85 167.62 25.38"/>
    <polyline class="cls-1" points="180.83 43.57 91.45 43.57 91.45 25.45"/>
    <line class="cls-1" x1="48.65" y1="10.1" x2="48.65" y2="25.38"/>
  </g>
  <g id="_レイヤー_4" data-name="レイヤー 4">
    <path class="cls-2" d="M23.92,0c20.04.59,39.03,12.68,47.36,31.13,0,0,7.25-2.75,7.25-2.75-.88,6.05-2.82,11.97-5.36,17.46-3.54,6.46-1.36,5.98-6.32.93-2.52-2.51-5.1-4.86-8-6.79-1.36-.94-2.76-1.79-4.21-2.53,0,0,7.25-2.75,7.25-2.75-2.26-8.51-6.88-16.25-13.48-22.23C41.59,6.34,33.01,1.91,23.92,0h0Z"/>
  </g>
</svg>